PathFileType	4	(x/y/z)	S04_PSF_T13.trc
DataRate	CameraRate	NumFrames	NumMarkers	Units	OrigDataRate	OrigDataStartFrame	OrigNumFrames
240	240	4	51	mm	240	271	432
Frame#	Time	Sternum			R.Acromium			L.Acromium			Top.Head			R.ASIS			L.ASIS			R.PSIS			L.PSIS			R.Great.Tro			L.Great.Tro			R.Iliac.Crest			L.Iliac.Crest			V.Sacral			R.Thigh.Upper.Post			R.Thigh.Lower.Ant			R.Thigh.Lower.Post			R.Thigh.Upper.Ant			R.Knee.Lat			R.Knee.Med			R.Shank.Upper.Post			R.Shank.Lower.Ant			R.Shank.Lower.Post			R.Shank.Upper.Ant			R.Ankle.Lat			R.Ankle.Med			R.Heel.Upper			R.Heel.Med			R.Heel.Lat			R.Toe.Lat			R.Toe.Med			R.Toe.Tip			L.Thigh.Upper.Post			L.Thigh.Lower.Ant			L.Thigh.Lower.Post			L.Thigh.Upper.Ant			L.Knee.Lat			L.Knee.Med			L.Shank.Upper.Post			L.Shank.Lower.Ant			L.Shank.Lower.Post			L.Shank.Upper.Ant			L.Ankle.Lat			L.Ankle.Med			L.Heel.Upper			L.Heel.Med			L.Heel.Lat			L.Toe.Lat			L.Toe.Med			L.Toe.Tip			Cervical.Spine			Back			
		X1	Y1	Z1	X2	Y2	Z2	X3	Y3	Z3	X4	Y4	Z4	X5	Y5	Z5	X6	Y6	Z6	X7	Y7	Z7	X8	Y8	Z8	X9	Y9	Z9	X10	Y10	Z10	X11	Y11	Z11	X12	Y12	Z12	X13	Y13	Z13	X14	Y14	Z14	X15	Y15	Z15	X16	Y16	Z16	X17	Y17	Z17	X18	Y18	Z18	X19	Y19	Z19	X20	Y20	Z20	X21	Y21	Z21	X22	Y22	Z22	X23	Y23	Z23	X24	Y24	Z24	X25	Y25	Z25	X26	Y26	Z26	X27	Y27	Z27	X28	Y28	Z28	X29	Y29	Z29	X30	Y30	Z30	X31	Y31	Z31	X32	Y32	Z32	X33	Y33	Z33	X34	Y34	Z34	X35	Y35	Z35	X36	Y36	Z36	X37	Y37	Z37	X38	Y38	Z38	X39	Y39	Z39	X40	Y40	Z40	X41	Y41	Z41	X42	Y42	Z42	X43	Y43	Z43	X44	Y44	Z44	X45	Y45	Z45	X46	Y46	Z46	X47	Y47	Z47	X48	Y48	Z48	X49	Y49	Z49	X50	Y50	Z50	X51	Y51	Z51	

271	1.125	-94.311	1250.2	261.18	-200.51	1478.1	448.31	-240.18	1465.7	100.6	-173.37	1805.6	257.88	-137.94	963.25	413.25	-120.58	984.66	163.87	-339.51	1007.2	293.72	-326.71	1008.6	213.94	-244.47	891.26	464.27	-222.56	898.13	86.236	-220.38	1059.4	447.04	-224.3	1065.3	110.69	-354.65	966.53	253.06	-313.32	649.45	441.34	-262.71	551.46	403.5	-336.93	562.94	424.4	-224.44	653.23	428.83	-341.29	488.91	409.41	-360.22	497.54	282.04	-492.35	303.87	394.39	-455.13	209.55	348.26	-516.52	239.52	372.31	-433.56	273.81	376.67	-543.72	126.58	345.14	-524.34	140.3	258.58	-617.22	108.79	289.63	-613.14	77.702	259.54	-618.29	76.202	323.53	-454.54	39.124	374.11	-415.99	37.29	255.25	-351.58	43.081	303.95	-160.76	660.55	101.42	-49.768	601.19	106.96	-119.46	582.43	117.95	-95.074	676.71	86.584	-44.417	512.2	124.18	-32.652	506.4	250.32	-47.799	313.98	133.6	52.575	267	127.49	-7.9165	247.18	140.27	13.166	332.51	119.99	109.91	117.72	147.73	116.03	137.13	238.79	62.906	57.672	199.7	82.522	42.906	234.99	79.511	33.78	173.51	240.93	113.53	124.17	266.22	146.98	235.04	306.7	182.08	182.91	-267.01	1527.6	284.21	-353.2	1269.7	270.33
272	1.1292	-88.315	1249.7	260.7	-194.69	1477.6	447.75	-234.47	1465.1	100.04	-167.72	1805.1	257.24	-131.97	962.72	413.04	-114.22	984.27	163.62	-333.35	1006.6	293.14	-320.48	1008.2	213.36	-238.66	890.73	463.87	-215.92	897.78	85.83	-214.38	1058.9	446.67	-218.1	1064.7	110.34	-348.43	966.02	252.43	-307.71	649.05	441.12	-257.17	550.95	403.48	-331.4	562.55	424.23	-218.82	652.74	428.73	-335.99	488.45	409.31	-354.56	497.07	281.94	-488.97	304.94	394.47	-452.79	210.16	348.38	-513.87	240.85	372.43	-430.51	274.22	376.75	-542.38	128.09	345.34	-522.64	141.6	258.82	-616.03	111.13	289.88	-612.3	80.137	259.69	-617.47	78.476	323.7	-454.22	39.243	374.15	-415.82	37.369	255.31	-351.35	42.829	303.91	-153.71	660.38	101.33	-42.687	601.18	107.56	-112.42	582.31	118.05	-87.829	676.66	86.904	-37.512	511.96	124.57	-26.355	506.19	250.62	-42.571	313.73	133.81	57.373	265.85	128.25	-3.3452	246.59	140.66	18.621	331.69	120.6	113.11	116.4	148.6	119.09	135.59	239.75	65.297	57.302	200.27	84.643	42.118	235.57	81.625	33.232	174.07	243.91	111.18	125.43	269.2	143.99	236.44	310.14	178.87	184.51	-261.29	1527.1	283.64	-347.28	1269.1	269.91
273	1.1333	-82.295	1249.3	260.21	-188.87	1477.2	447.18	-228.76	1464.4	99.469	-162.07	1804.6	256.58	-125.94	962.22	412.82	-107.82	983.94	163.36	-327.13	1006.1	292.56	-314.2	1007.8	212.78	-232.79	890.22	463.47	-209.21	897.49	85.418	-208.33	1058.4	446.3	-211.85	1064.2	109.99	-342.17	965.56	251.78	-302	648.65	440.91	-251.49	550.45	403.48	-325.75	562.16	424.07	-213.1	652.27	428.63	-330.54	487.99	409.22	-348.76	496.58	281.85	-485.47	306.07	394.56	-450.36	210.82	348.52	-511.11	242.23	372.55	-427.35	274.67	376.86	-540.95	129.67	345.56	-520.83	142.97	259.08	-614.72	113.6	290.15	-611.36	82.71	259.85	-616.57	80.876	323.87	-453.88	39.376	374.2	-415.63	37.457	255.37	-351.11	42.589	303.87	-146.63	660.27	101.23	-35.584	601.21	108.14	-105.35	582.23	118.12	-80.544	676.66	87.215	-30.598	511.75	124.95	-20.082	505.99	250.9	-37.41	313.52	133.96	62.076	264.69	129.01	1.1192	246.02	140.99	24.02	330.89	121.19	116.11	115.07	149.43	121.92	134.01	240.69	67.39	57.025	200.76	86.423	41.38	236.09	83.41	32.753	174.56	246.66	108.67	126.72	271.94	140.78	237.88	313.41	175.4	186.17	-255.57	1526.5	283.04	-341.33	1268.5	269.48
274	1.1375	-76.253	1249	259.71	-183.05	1476.9	446.59	-223.05	1463.9	98.883	-156.42	1804.2	255.92	-119.86	961.75	412.6	-101.36	983.67	163.11	-320.87	1005.7	291.98	-307.87	1007.4	212.19	-226.86	889.74	463.05	-202.44	897.27	85.001	-202.23	1058	445.92	-205.54	1063.7	109.62	-335.85	965.15	251.13	-296.19	648.25	440.69	-245.68	549.95	403.51	-319.97	561.75	423.91	-207.29	651.82	428.54	-324.96	487.53	409.15	-342.8	496.08	281.78	-481.85	307.24	394.66	-447.83	211.53	348.68	-508.23	243.68	372.69	-424.1	275.17	376.99	-539.42	131.32	345.81	-518.92	144.4	259.38	-613.29	116.19	290.42	-610.32	85.428	260.01	-615.58	83.409	324.06	-453.53	39.525	374.25	-415.45	37.557	255.43	-350.88	42.359	303.82	-139.54	660.21	101.11	-28.481	601.26	108.7	-98.292	582.2	118.17	-73.244	676.7	87.513	-23.693	511.58	125.3	-13.853	505.81	251.15	-32.304	313.37	134.05	66.702	263.55	129.74	5.4994	245.49	141.26	29.371	330.12	121.76	118.94	113.74	150.22	124.56	132.4	241.58	69.238	56.851	201.17	87.914	40.711	236.53	84.916	32.355	174.98	249.21	106.04	128.02	274.48	137.39	239.35	316.54	171.69	187.87	-249.85	1526.1	282.44	-335.37	1267.9	269.04
